<?xml version="1.0" encoding="utf-8"?>
<?xml-stylesheet type="text/xsl" href="rss1.xsl"?>
<rss version="2.0" xmlns:atom="http://www.w3.org/2005/Atom" xmlns:content="http://purl.org/rss/1.0/modules/content/" xmlns:dc="http://purl.org/dc/elements/1.1/" xmlns:media="http://search.yahoo.com/mrss/">
<channel>
 <title>Getty</title>
 <link>http://www.gettyimg.com/</link>
 <atom:link href="http://www.gettyimg.com/" rel="self" type="application/rss+xml" />

 
                <item>
                <title><![CDATA[【UPSCALED】Major Lazer &amp; Dj Snake ft. Mø - Lean On [4K AI Upscale HEVC 10-bit / PCM 48 kHz]]]></title>
                <link><![CDATA[https://sharemania.us/threads/major-lazer-dj-snake-ft-m%C3%B8-lean-on-4k-ai-upscale-hevc-10-bit-pcm-48-khz.220442/]]></link>
                <description><![CDATA[<article>
<blockquote class="messageText SelectQuoteContainer ugc baseHtml">
<img src="https://images2.imgbox.com/99/fa/TZ3UFBdy_o.jpg" class="bbCodeImage LbImage" alt="[​IMG]" data-url="https://images2.imgbox.com/99/fa/TZ3UFBdy_o.jpg" style=""> <br>
<br>
<b>Genre: <span style="color: #0059b3">Electronic, Pop</span> <br>
Style: <span style="color: #0059b3">Moombahton, Dancehall</span> <br>
Year: <span style="color: #0059b3">2015</span> <br>
Source: <span style="color: #0059b3">Vimeo, Master ProRes</span></b><br>
<br>
"<b>Lean On</b>" is a song by American electronic dance music group Major Lazer and French DJ and record producer DJ Snake featuring Danish singer MØ (best known for crooning the hook on Iggy Azalea's "Beg For It" single). It was released on March 2, 2015, as the lead single from Major Lazer's third studio album, <i>Peace Is the Mission</i> (2015). It was written by MØ, Diplo, DJ Snake, Tchami, and Jr Blender, and produced by Major Lazer and DJ Snake. It is an EDM, electronic and moombahton song.<br>
<br>
"Lean On" was a critical and commercial success, peaking at number four on the US <i>Billboard</i> Hot 100 and number two on the UK Singles Chart. It reached number one in several other countries including Argentina, Australia, Denmark, Finland, Ireland, the Netherlands, New Zealand, Mexico, and Switzerland; as well as the top 10 in Austria, Belgium, Canada, Colombia, France, Israel, Italy, Norway, Poland, Spain, and Sweden. In November 2015, "Lean On" was named by Spotify as the most streamed song of all time, and has over 1 billion streams globally as of June 2017; however, it was later overtaken by Drake's "One Dance" (2016).<br>
<br>
The accompanying music video for "Lean On" was directed by Tim Erem, produced by Mikhail Mehra, Akshay Multani &amp; Per Welen, director of photography Jacob Møller. It was shot at ND Studios, Karjat, and Kaul Heritage City, Vasai in Maharashtra, India. Some scenes of the video are filmed in the Golden Hall of the Stockholm City Hall. It follows a premise of Major Lazer, MØ and DJ Snake engaging in modernised Bollywood dance sequences. It was inspired by a previous tour Major Lazer embarked on in the country.<br>
The video premiered on March 22, 2015, and has over 3.27 billion views on YouTube as of October 2022, making it the 26th most viewed video on the site. According to IFPI, "Lean On" was the fifth best-selling song of 2015 worldwide, and one of the best-selling singles of all time, with global sales of 13.1 million.<br>
<br>
<b>Release Info</b><br>
The video track is upscaled to 4K with Topaz Video AI and converted to HEVC 10-bit.<br>
The PCM track is lossless (16-bit 48 kHz), default track from the Master, left as is.<br>
The timed lyrics are synced and edited to match the music video.<br>
Enable the subtitles to see the lyrics.<br>
<br>
<div class="ToggleTriggerAnchor bbCodeSpoilerContainer">
<button type="button" class="button bbCodeSpoilerButton ToggleTrigger Tooltip JsOnly" data-target="> .SpoilerTarget"><span>Spoiler: <span class="SpoilerTitle">Media Info</span></span></button>
<div class="SpoilerTarget bbCodeSpoilerText">
<div class="bbCodeBlock bbCodeCode">
<div class="type">Code:</div>
<pre>General
Unique ID                      : 205389082819077085257128276083847002070 (0x9A847F9CB904B72FD465A8D74664F7D6)
Complete name                  : Major Lazer &amp; Dj Snake ft. Mø - Lean On.mkv
Format                         : Matroska
Format version                 : Version 4
File size                      : 460 MiB
Duration                       : 2 min 58 s
Overall bit rate               : 21.5 Mb/s
Encoded date                   : UTC 2023-05-04 12:29:08
Writing application            : mkvmerge v76.0 ('Celebration') 64-bit
Writing library                : libebml v1.4.4 + libmatroska v1.7.1

Video
ID                             : 1
Format                         : HEVC
Format/Info                    : High Efficiency Video Coding
Format profile                 : Main 10@L5@Main
Codec ID                       : V_MPEGH/ISO/HEVC
Duration                       : 2 min 58 s
Bit rate                       : 20.0 Mb/s
Width                          : 3 840 pixels
Height                         : 1 632 pixels
Display aspect ratio           : 2.35:1
Frame rate mode                : Constant
Frame rate                     : 25.000 FPS
Color space                    : YUV
Chroma subsampling             : 4:2:0
Bit depth                      : 10 bits
Bits/(Pixel*Frame)             : 0.128
Stream size                    : 427 MiB (93%)
Default                        : Yes
Forced                         : No
Color range                    : Limited
Color primaries                : BT.709
Transfer characteristics       : BT.709
Matrix coefficients            : BT.709

Audio
ID                             : 2
Format                         : PCM
Format settings                : Little / Signed
Codec ID                       : A_PCM/INT/LIT
Duration                       : 2 min 58 s
Bit rate mode                  : Constant
Bit rate                       : 1 536 kb/s
Channel(s)                     : 2 channels
Sampling rate                  : 48.0 kHz
Frame rate                     : 25.000 FPS (1920 SPF)
Bit depth                      : 16 bits
Delay relative to video        : 60 ms
Stream size                    : 32.8 MiB (7%)
Language                       : English
Default                        : Yes
Forced                         : No

Text
ID                             : 3
Format                         : UTF-8
Codec ID                       : S_TEXT/UTF8
Codec ID/Info                  : UTF-8 Plain Text
Duration                       : 2 min 41 s
Bit rate                       : 59 b/s
Frame rate                     : 0.266 FPS
Count of elements              : 43
Stream size                    : 1.17 KiB (0%)
Title                          : Lyrics
Language                       : English
Default                        : No
Forced                         : No
</pre>
</div></div>
</div><br>
<div class="bbCodeBlock bbCodeVfcHH HiddenContent">
<div class="attribution type">Hidden Content:</div>
<blockquote>You must reply before you can see the hidden data contained here.</blockquote>
</div>
<div class="messageTextEndMarker">&nbsp;</div>
</blockquote>
</article>]]></description>
                <author><![CDATA[ADHDerby]]></author>
                </item>

                
                <item>
                <title><![CDATA[【HD Live Performances】FEED - Premios Juventud S01E19 2022 1080i HDTV Backhaul MPA2.0 H.264-TrollHD]]></title>
                <link><![CDATA[https://sharemania.us/threads/premios-juventud-s01e19-2022-1080i-hdtv-backhaul-mpa2-0-h-264-trollhd.220443/]]></link>
                <description><![CDATA[<article>
<blockquote class="messageText SelectQuoteContainer ugc baseHtml">
<div style="padding-left: 30px"><div style="padding-left: 30px"><b><span style="color: #ff0000">Premios Juventud S01E19 2022 1080i HDTV Backhaul MPA2.0 H.264-TrollHD</span></b>​</div></div><br>
<img src="https://images2.imgbox.com/11/63/6m71FGsg_o.jpg" class="bbCodeImage LbImage" alt="[​IMG]" data-url="https://images2.imgbox.com/11/63/6m71FGsg_o.jpg" style=""> <br>
<br>
<div class="bbCodeBlock bbCodeCode">
<div class="type">Code:</div>
<pre>General
Unique ID                      : 251067056551370661083935872953342880763 (0xBCE1C19809606C63A891D5BB3D71EBFB)
Format                         : Matroska
Format version                 : Version 4
File size                      : 27.7 GiB
Duration                       : 2 h 31 min
Overall bit rate mode          : Constant
Overall bit rate               : 26.3 Mb/s
Encoded date                   : UTC 2022-08-03 19:56:03
Writing application            : mkvmerge v67.0.0 ('Under Stars') 64-bit
Writing library                : libebml v1.4.2 + libmatroska v1.6.4

Video
ID                             : 1
Format                         : AVC
Format/Info                    : Advanced Video Codec
Format profile                 : High@L4.1
Format settings                : CABAC / 3 Ref Frames
Format settings, CABAC         : Yes
Format settings, Reference fra : 3 frames
Format settings, GOP           : M=1, N=15
Codec ID                       : V_MPEG4/ISO/AVC
Duration                       : 2 h 31 min
Bit rate mode                  : Constant
Bit rate                       : 26.0 Mb/s
Nominal bit rate               : 27.9 Mb/s
Width                          : 1 920 pixels
Height                         : 1 080 pixels
Display aspect ratio           : 16:9
Frame rate mode                : Variable
Frame rate                     : 59.940 FPS
Original frame rate            : 29.970 (30000/1001) FPS
Color space                    : YUV
Chroma subsampling             : 4:2:0
Bit depth                      : 8 bits
Scan type                      : Interlaced
Scan type, store method        : Separated fields
Scan order                     : Top Field First
Bits/(Pixel*Frame)             : 0.209
Stream size                    : 27.5 GiB (99%)
Default                        : Yes
Forced                         : No
Color range                    : Limited
Color primaries                : BT.709
Transfer characteristics       : BT.709
Matrix coefficients            : BT.709

Audio
ID                             : 2
Format                         : MPEG Audio
Format version                 : Version 1
Format profile                 : Layer 2
Codec ID                       : A_MPEG/L2
Codec ID/Hint                  : MP2
Duration                       : 2 h 31 min
Bit rate mode                  : Constant
Bit rate                       : 256 kb/s
Channel(s)                     : 2 channels
Sampling rate                  : 48.0 kHz
Frame rate                     : 41.667 FPS (1152 SPF)
Compression mode               : Lossy
Stream size                    : 277 MiB (1%)
Language                       : Spanish
Default                        : Yes
Forced                         : No

Menu
00:01:02.000                   : en:Mora - Tus Lágrimas + La Inocente
00:05:20.000                   : en:Kiko El Crazy + The Change - Ibiza
00:09:43.000                   : en:Daddy Yankee     "Rumbatón
00:14:13.000                   : en:Grupo Firme &amp; Lenin Ramírez - El Tóxico + En Tu Perra Vida + Ya Supérame
00:25:53.000                   : en:Boza + Lenny Tavárez + Juhn - Ella (Remix)
00:31:02.000                   : en:Mau y Ricky - Llorar y Llorar + Mal Acostumbrao
00:36:16.000                   : en:Manny Cruz - Santo Domingo
00:41:16.000                   : en:Luis Vazquez - Tu Fan
00:49:35.000                   : en:Danna Paola - A Un Beso
00:58:44.000                   : en:Wisin &amp; Yandel - Estoy Enamorado + Te Siento + Abusadora
01:11:49.000                   : en:Ángela Aguilar - Se disfrazó + Piel canela
01:17:16.000                   : en:Feid - Pantysito
01:27:11.000                   : en:Prince Royce
01:35:47.000                   : en:Kany García
01:46:36.000                   : en:Banda MS de Sergio Lizárraga - La Casita
01:54:09.000                   : en:Natti Natasha + Daddy Yankee + Wisin &amp; Yandel - Mayor Que Usted
01:59:10.000                   : en:CNCO - Plutón
02:02:39.000                   : en:Farina - Fiesta
02:06:32.000                   : en:La Adictiva Banda San José de Mesillas + Lenín Ramirez - Eso Es La Riqueza
02:10:12.000                   : en:Farruko + El Alfa + DJ Adoni + La Perversa - La opinión es tuya
02:16:24.000                   : en:Grupo Firme + Banda MS de Sergio Lizárraga - No llega el olvido + Ya lo sé + Basta Ya + Inolvidable
02:26:33.000                   : en:J Balvin - 6 AM + Reggaeton + Ay Vamos + In Da Getto

</pre>
</div>
<div class="bbCodeBlock bbCodeVfcHH HiddenContent">
<div class="attribution type">Hidden Content:</div>
<blockquote>You must either reply or click 'Like' to see the hidden information contained here.</blockquote>
</div><br>
<br>
<b><span style="color: #ff0000">Credits goes to <a href="https://sharemania.us/members/1219/" class="username" data-user="1219, @TrollHD">@TrollHD</a> !!!</span></b><br>
<br>
<div style="padding-left: 30px"><b><span style="color: #ff0000"><img src="styles/default/xenforo/smilies/super_man-48.png" class="mceSmilie" alt=":super:" title="Super Man    :super:"><img src="styles/default/xenforo/smilies/super_man-48.png" class="mceSmilie" alt=":super:" title="Super Man    :super:"><img src="styles/default/xenforo/smilies/super_man-48.png" class="mceSmilie" alt=":super:" title="Super Man    :super:"></span></b>​</div>
<div class="messageTextEndMarker">&nbsp;</div>
</blockquote>
</article>]]></description>
                <author><![CDATA[Dream66]]></author>
                </item>

                </channel></rss>